<svg version="1.1" id="Layer_1" xmlns="http://www.w3.org/2000/svg" xmlns:xlink="http://www.w3.org/1999/xlink" x="0px" y="0px"
	 width="100%" viewBox="0 0 830 300" enable-background="new 0 0 830 300" xml:space="preserve">
<path fill="#C2C2C2" opacity="1.000000" stroke="none" 
	d="
M768.000000,301.000000 
	C513.500000,301.000000 259.500000,300.990326 5.500038,301.093323 
	C1.750831,301.094849 0.900522,300.249695 0.905150,296.499878 
	C1.025066,199.333359 1.023148,102.166634 0.904390,5.000117 
	C0.900205,1.575989 1.576545,0.904588 5.000035,0.905867 
	C279.000000,1.008260 553.000000,1.008260 826.999939,0.905867 
	C830.423462,0.904588 831.099854,1.575991 831.095642,5.000117 
	C830.976929,102.333305 830.976929,199.666702 831.095642,296.999878 
	C831.099792,300.424011 830.429871,301.139191 826.998901,301.102112 
	C807.501160,300.891357 788.000000,301.000000 768.000000,301.000000 
z"/>
<path fill="#1C1817" opacity="1.000000" stroke="none" 
	d="
M469.141083,153.388290 
	C469.329590,156.112442 467.842590,156.118820 466.243256,155.984268 
	C464.746979,155.858383 465.028503,154.701248 464.994904,153.776825 
	C464.946594,152.447678 464.675842,151.028381 465.032654,149.802643 
	C465.837128,147.039062 462.641205,142.110748 467.213654,141.866425 
	C470.081177,141.713196 473.565948,139.096542 476.483215,142.030029 
	C477.823059,143.377319 478.829437,142.141403 479.995483,141.697311 
	C484.476776,139.990723 487.033630,141.646881 487.270447,146.468887 
	C487.392700,148.957733 487.253052,151.458405 487.289795,153.952881 
	C487.310547,155.360992 486.873505,156.117310 485.291321,156.021896 
	C483.915131,155.938889 483.708588,155.156723 483.722748,154.045685 
	C483.746063,152.216705 483.776672,150.385025 483.704468,148.558426 
	C483.631561,146.713760 483.504181,144.427170 481.189575,144.384750 
	C478.663422,144.338440 478.253937,146.619766 478.172638,148.717834 
	C478.127563,149.880844 478.283661,151.068176 478.102234,152.205154 
	C477.879608,153.600220 479.192352,155.930847 476.366455,155.978973 
	C473.247894,156.032059 474.517456,153.468460 474.310364,151.927658 
	C474.112793,150.457932 474.367676,148.932831 474.256042,147.444641 
	C474.142151,145.926941 473.832581,144.270050 471.825714,144.343231 
	C470.003357,144.409698 469.332031,145.858200 469.221527,147.453751 
	C469.095337,149.275574 469.163788,151.110870 469.141083,153.388290 
z"/>
<path fill="#1E1B1A" opacity="1.000000" stroke="none" 
	d="
M504.493500,156.123535 
	C506.708405,155.217987 507.948639,152.203857 506.645203,149.017700 
	C505.536041,146.306351 505.111755,143.815994 507.958313,142.059723 
	C511.348267,139.968140 515.078369,141.106308 518.566833,141.694305 
	C519.996582,141.935303 516.499817,149.746750 514.406006,150.800888 
	C513.008484,151.504471 510.994598,150.255920 509.980499,152.297562 
	C511.637024,153.553970 513.504517,152.691681 515.192017,153.030548 
	C518.608643,153.716644 520.341614,156.489105 518.692383,159.187134 
	C516.246460,163.188675 512.128235,162.445648 508.377930,162.104523 
	C504.736938,161.773346 504.515259,159.100937 504.493500,156.123535 
z"/>
<path fill="#211D1B" opacity="1.000000" stroke="none" 
	d="
M381.765137,145.804016 
	C378.338379,145.663269 380.989197,148.512619 380.187378,150.013809 
	C379.182129,151.895706 382.236816,155.868286 378.104004,155.806290 
	C374.691040,155.755066 376.864563,152.130371 376.283539,150.178192 
	C376.146881,149.719055 376.294464,149.182587 376.252899,148.686584 
	C376.089539,146.734924 376.379547,144.192917 373.482391,144.322617 
	C370.786255,144.443314 370.878662,146.902542 370.778809,148.885544 
	C370.695190,150.545685 370.744476,152.212906 370.749451,153.876953 
	C370.753571,155.255142 370.239594,155.997864 368.704987,156.031860 
	C367.172302,156.065826 366.649963,155.421158 366.656586,153.981110 
	C366.681122,148.655273 366.684418,143.329010 366.639313,138.003403 
	C366.627808,136.644135 366.948395,135.731567 368.495697,135.671921 
	C370.250092,135.604309 370.970428,136.500366 370.684326,138.139725 
	C370.135925,141.282043 370.922333,142.093735 374.257507,141.140579 
	C378.331360,139.976334 379.213470,144.348923 381.765137,145.804016 
z"/>
<path fill="#1A1715" opacity="1.000000" stroke="none" 
	d="
M415.557098,140.715607 
	C415.797089,139.527252 415.907959,138.529373 415.861786,137.538849 
	C415.785858,135.910919 416.690918,135.659744 418.051270,135.654999 
	C419.602905,135.649582 420.027618,136.387024 420.017761,137.800140 
	C419.980652,143.120728 420.008209,148.441757 420.011078,153.762619 
	C420.011536,154.589035 419.752167,156.041412 419.190582,155.789810 
	C415.679871,154.216797 411.712524,157.892105 408.549133,154.944351 
	C406.005402,152.574005 405.927734,149.308533 406.608124,146.116211 
	C407.423553,142.290298 409.563568,140.226929 414.129517,141.463776 
	C414.502960,140.939972 415.480957,141.674072 415.557098,140.715607 
z"/>
<path fill="#211D1B" opacity="1.000000" stroke="none" 
	d="
M323.646606,143.196472 
	C330.236908,138.861938 334.627228,141.094101 334.729401,148.466644 
	C334.745514,149.627975 334.826965,150.797913 334.720734,151.949356 
	C334.521912,154.103561 335.703613,157.869644 331.029053,154.993317 
	C330.212769,154.491058 328.371643,155.811783 326.963623,156.077454 
	C324.772156,156.490921 322.818298,155.784378 322.127533,153.600174 
	C321.476196,151.540497 321.226837,148.992981 323.787415,148.004425 
	C328.307495,146.259369 325.380768,145.015152 323.646606,143.196472 
z"/>
<path fill="#211D1B" opacity="1.000000" stroke="none" 
	d="
M435.581848,144.338135 
	C437.238525,149.105820 435.168091,150.131790 431.115448,149.838959 
	C429.908112,149.751709 427.242188,148.419571 427.326202,151.219315 
	C427.387695,153.269608 429.645081,153.039841 431.303101,153.238876 
	C432.629791,153.398117 435.066681,151.314896 435.086029,154.305847 
	C435.100281,156.507629 432.620728,156.013901 431.070190,156.139389 
	C427.166107,156.455368 423.999756,155.109177 423.080048,151.064148 
	C422.283569,147.561295 422.493927,143.840179 426.225067,141.914413 
	C429.652588,140.145355 432.976135,140.510620 435.581848,144.338135 
z"/>
<path fill="#24211F" opacity="1.000000" stroke="none" 
	d="
M357.963531,149.751877 
	C356.570160,150.040970 354.832916,149.179642 354.899506,151.005371 
	C354.969574,152.926651 356.755127,152.823196 358.167908,153.301208 
	C359.774506,153.844833 362.843597,150.715240 362.757172,154.176056 
	C362.683929,157.109787 359.078827,156.181732 356.972473,156.092209 
	C352.321777,155.894547 349.740875,152.386871 350.314667,147.534607 
	C350.836792,143.119202 353.846558,140.548264 358.048340,141.009827 
	C361.797699,141.421692 363.708954,143.712463 363.650604,147.342163 
	C363.585754,151.376007 360.239746,149.109802 357.963531,149.751877 
z"/>
<path fill="#1C1817" opacity="1.000000" stroke="none" 
	d="
M504.097626,155.990021 
	C501.150330,155.870804 498.317291,154.776810 495.184357,156.005600 
	C493.012115,156.857590 491.128418,155.473938 490.494720,152.842987 
	C489.811646,150.007233 490.997467,148.340240 493.484741,147.430313 
	C494.544922,147.042480 495.744720,147.028442 496.884430,146.868378 
	C497.798157,146.740036 499.048187,147.053802 498.920563,145.497147 
	C498.812592,144.180511 497.719116,144.262970 496.743073,144.011688 
	C495.163940,143.605133 492.031464,146.303680 492.293671,142.688232 
	C492.419159,140.958191 495.831421,140.833801 497.956940,141.042862 
	C501.135590,141.355469 503.185120,142.901688 503.167755,146.443604 
	C503.153137,149.425659 503.266266,152.408356 503.684326,155.711823 
	C504.045776,156.032898 504.083954,156.008530 504.097626,155.990021 
z"/>
<path fill="#24211F" opacity="1.000000" stroke="none" 
	d="
M530.103027,141.585800 
	C531.729614,142.302277 532.586243,143.266861 533.128601,144.529251 
	C534.685181,148.152695 533.766968,149.618317 529.831848,149.762573 
	C528.676208,149.804932 527.516235,149.760071 526.363708,149.836975 
	C525.757446,149.877426 525.003296,149.818069 524.857056,150.723526 
	C524.701782,151.685318 525.236633,152.332703 525.963379,152.729019 
	C527.350891,153.485748 528.856812,153.114197 530.339294,153.032898 
	C531.300110,152.980209 532.819885,151.873535 532.957275,153.959503 
	C533.058777,155.499695 531.777405,155.809738 530.614197,155.972092 
	C527.250366,156.441620 523.843506,156.585892 521.619385,153.420822 
	C519.514282,150.425125 519.691284,147.034592 521.490662,144.034180 
	C523.341187,140.948410 526.384827,140.404404 530.103027,141.585800 
z"/>
<path fill="#151110" opacity="1.000000" stroke="none" 
	d="
M300.007721,155.930267 
	C298.291321,150.314880 299.312439,144.688263 299.034943,139.102463 
	C299.005066,138.500854 299.252472,137.398407 299.532623,137.342911 
	C302.768433,136.701828 306.083832,136.272491 309.197144,137.699234 
	C311.830017,138.905777 312.394196,141.307251 312.072540,143.988831 
	C311.693054,147.152588 309.516937,148.798630 306.720520,148.896378 
	C303.658051,149.003418 302.538147,150.030380 302.988098,153.015778 
	C303.265259,154.854675 302.943115,156.389801 300.007721,155.930267 
z"/>
<path fill="#1C1817" opacity="1.000000" stroke="none" 
	d="
M382.433044,145.561447 
	C382.028717,145.316483 382.001953,145.354172 382.019836,145.367401 
	C383.234497,146.151840 383.361237,144.917816 383.722687,144.389542 
	C386.198944,140.769958 389.555176,139.963165 393.255951,141.925491 
	C397.059692,143.942398 397.661774,147.480286 396.506989,151.378113 
	C395.369598,155.217194 392.535950,156.558502 388.820465,156.068100 
	C384.359436,155.479324 382.813721,152.441864 382.832916,148.296295 
	C382.836761,147.466354 382.835999,146.636368 382.433044,145.561447 
z"/>
<path fill="#211D1B" opacity="1.000000" stroke="none" 
	d="
M337.270477,148.175262 
	C338.596069,142.438263 341.955750,139.951538 346.377808,141.199203 
	C347.315826,141.463882 348.971527,141.383606 348.601074,143.151443 
	C348.320801,144.488876 347.547791,144.824478 346.051971,144.458862 
	C342.445923,143.577423 341.157928,145.719101 341.257843,148.893250 
	C341.353912,151.944672 342.923462,153.450531 346.150146,152.837326 
	C347.137421,152.649704 348.640198,151.746429 348.666840,153.865234 
	C348.684937,155.307159 347.566864,155.832367 346.357086,156.030884 
	C341.098419,156.893875 336.963379,154.738235 337.270477,148.175262 
z"/>
<path fill="#24211F" opacity="1.000000" stroke="none" 
	d="
M399.583008,139.575333 
	C399.785309,137.635284 399.031769,135.551697 401.819336,135.666397 
	C404.192047,135.764038 403.733856,137.522751 403.743896,138.932800 
	C403.778259,143.757629 403.748810,148.582886 403.751434,153.407990 
	C403.752228,154.840454 403.597565,156.012680 401.675232,156.059845 
	C399.669220,156.109070 399.660004,154.888824 399.656555,153.471893 
	C399.645630,148.982391 399.598633,144.492981 399.583008,139.575333 
z"/>
<path fill="#1A1715" opacity="1.000000" stroke="none" 
	d="
M438.984924,153.643799 
	C438.979553,152.018402 438.883972,150.842545 438.998169,149.687454 
	C439.269257,146.945450 437.718628,143.402145 439.957062,141.725098 
	C441.191071,140.800568 444.445953,142.872238 446.745575,141.132309 
	C447.229187,140.766434 448.163574,141.115524 448.273560,141.880463 
	C448.412445,142.846527 448.429657,144.364288 447.422638,144.493225 
	C441.669189,145.229828 443.457001,149.579422 443.128571,152.956131 
	C443.014618,154.127731 443.752075,155.817383 441.608582,155.986115 
	C440.222198,156.095245 438.837372,156.154892 438.984924,153.643799 
z"/>
<path fill="#151110" opacity="1.000000" stroke="none" 
	d="
M317.037415,135.730576 
	C319.264221,135.812988 319.105103,137.121094 319.109467,138.261002 
	C319.128479,143.245499 319.096741,148.230270 319.130463,153.214630 
	C319.141541,154.851898 319.058655,156.151108 316.811584,156.034943 
	C314.714142,155.926514 315.007233,154.520401 315.001862,153.245087 
	C314.980896,148.260605 314.985657,143.275909 315.003662,138.291382 
	C315.007812,137.149536 314.846710,135.852890 317.037415,135.730576 
z"/>
<path fill="#151110" opacity="1.000000" stroke="none" 
	d="
M457.727753,150.878571 
	C457.730194,146.755112 457.714813,143.116394 457.746643,139.478073 
	C457.756378,138.364365 457.568634,137.070435 459.292542,136.944809 
	C461.302277,136.798340 461.281464,138.176834 461.283752,139.541046 
	C461.290375,143.510406 461.416168,147.485840 461.226868,151.446060 
	C461.153076,152.989243 462.419434,155.692825 459.725952,155.840988 
	C456.316986,156.028519 458.285492,152.945770 457.727753,150.878571 
z"/>
<path fill="#B7B2B1" opacity="1.000000" stroke="none" 
	d="
M510.303802,159.953400 
	C508.761047,159.523270 507.543549,158.947815 508.342438,157.537872 
	C509.566376,155.377823 511.791138,156.191223 513.671570,156.202744 
	C514.713989,156.209106 515.720825,156.778198 515.592957,157.929306 
	C515.414185,159.537933 513.982727,159.783203 512.659668,159.936539 
	C512.015320,160.011200 511.357697,159.971481 510.303802,159.953400 
z"/>
<path fill="#B7B2B1" opacity="1.000000" stroke="none" 
	d="
M509.352722,146.068817 
	C510.155396,143.666885 511.438904,142.407669 513.356506,144.359482 
	C514.466187,145.488892 514.445496,147.265884 512.942200,148.278412 
	C510.837677,149.695877 510.014313,148.092987 509.352722,146.068817 
z"/>
<path fill="#B7B2B1" opacity="1.000000" stroke="none" 
	d="
M414.642151,144.606918 
	C415.326141,145.566299 415.920471,146.249298 416.015686,146.995956 
	C416.306732,149.279053 416.803711,151.926315 413.893311,152.851196 
	C411.653595,153.562973 410.408661,151.875809 410.244629,149.881882 
	C410.009094,147.018875 409.870453,143.900421 414.642151,144.606918 
z"/>
<path fill="#C2C2C2" opacity="1.000000" stroke="none" 
	d="
M415.437805,140.768677 
	C415.730988,141.146286 416.523346,142.228928 414.721497,141.759003 
	C414.708496,141.363235 414.913635,141.189377 415.437805,140.768677 
z"/>
<path fill="#B7B2B1" opacity="1.000000" stroke="none" 
	d="
M328.629486,153.088745 
	C326.298767,153.251617 325.277069,152.445724 326.140961,150.491211 
	C326.882721,148.813019 328.848755,148.453842 329.951141,149.239563 
	C332.020233,150.714279 330.394470,151.966476 328.629486,153.088745 
z"/>
<path fill="#C2C2C2" opacity="1.000000" stroke="none" 
	d="
M329.702637,146.412292 
	C328.044189,146.652802 326.593811,147.417389 325.895020,145.863678 
	C325.618439,145.248672 326.116577,144.583954 326.796875,144.404251 
	C328.387878,143.983948 330.081116,143.502014 329.702637,146.412292 
z"/>
<path fill="#B7B2B1" opacity="1.000000" stroke="none" 
	d="
M430.175293,146.990448 
	C428.866150,146.814301 427.529053,147.436508 427.277100,146.121735 
	C427.010437,144.730164 428.079254,144.071899 429.335724,143.869156 
	C430.607178,143.664001 431.634308,144.075180 432.129486,145.346024 
	C432.729492,146.885910 431.588562,146.871567 430.175293,146.990448 
z"/>
<path fill="#B7B2B1" opacity="1.000000" stroke="none" 
	d="
M355.347290,144.572754 
	C357.921600,143.355301 359.474609,143.794693 359.902161,146.921219 
	C358.095367,146.271683 355.452911,148.824066 355.347290,144.572754 
z"/>
<path fill="#B7B2B1" opacity="1.000000" stroke="none" 
	d="
M495.409729,153.059418 
	C493.147369,150.774323 494.588989,149.754272 496.472168,149.171021 
	C497.404968,148.882111 498.978760,148.426392 499.139771,150.132980 
	C499.353760,152.401917 497.965637,153.321747 495.409729,153.059418 
z"/>
<path fill="#B7B2B1" opacity="1.000000" stroke="none" 
	d="
M526.048462,144.074371 
	C528.349487,143.668015 530.110901,144.265671 529.633972,146.361542 
	C529.344666,147.633179 527.279663,147.056061 526.079529,146.896729 
	C523.468079,146.550034 524.991516,145.276794 526.048462,144.074371 
z"/>
<path fill="#B7B2B1" opacity="1.000000" stroke="none" 
	d="
M305.645233,145.786850 
	C301.932037,146.134521 303.170197,143.636993 303.009521,142.091415 
	C302.906128,141.097153 303.097260,140.097580 304.553925,140.094849 
	C305.981201,140.092178 307.356659,140.365967 307.908783,141.735840 
	C308.640442,143.551178 307.949799,144.976913 305.645233,145.786850 
z"/>
<path fill="#B7B2B1" opacity="1.000000" stroke="none" 
	d="
M392.949463,149.778717 
	C392.313202,152.506851 390.779053,153.788040 388.579468,152.639481 
	C386.377472,151.489639 386.550446,149.113861 386.944366,146.923416 
	C387.238770,145.286270 388.071625,144.040970 389.844238,144.206909 
	C393.059448,144.507904 392.984955,147.010162 392.949463,149.778717 
z"/>
</svg>