<svg version="1.1" id="Layer_1" xmlns="http://www.w3.org/2000/svg" xmlns:xlink="http://www.w3.org/1999/xlink" x="0px" y="0px"
	 width="100%" viewBox="0 0 1200 1200" enable-background="new 0 0 1200 1200" xml:space="preserve">
<path fill="#F3D503" opacity="1.000000" stroke="none" 
	d="
M788.000000,1201.000000 
	C525.333313,1201.000000 263.166656,1201.000000 1.000000,1201.000000 
	C1.000000,801.000000 1.000000,401.000000 1.000000,1.000000 
	C401.000000,1.000000 801.000000,1.000000 1201.000000,1.000000 
	C1201.000000,401.000000 1201.000000,801.000000 1201.000000,1201.000000 
	C1063.500000,1201.000000 926.000000,1201.000000 788.000000,1201.000000 
M500.499634,938.504883 
	C610.153320,938.504883 719.807007,938.511963 829.460693,938.486206 
	C835.621765,938.484741 841.788574,938.334412 847.943115,938.047363 
	C910.136780,935.146729 960.223145,884.350769 962.133789,822.241638 
	C962.285522,817.308289 962.153748,812.366272 962.153748,807.000183 
	C983.294495,807.000183 1003.506653,807.000183 1024.539185,807.000183 
	C1006.364929,780.380493 988.669189,754.461609 970.943665,728.499084 
	C988.754517,702.415405 1006.446167,676.506409 1024.663818,649.827026 
	C1003.421997,649.827026 983.186829,649.827026 962.314087,649.827026 
	C962.314087,647.281067 962.314148,645.169861 962.314209,643.058655 
	C962.315735,557.901489 962.363831,472.744293 962.242126,387.587341 
	C962.230713,379.622803 961.890686,371.521240 960.440002,363.718140 
	C949.384583,304.251038 901.106873,263.680664 840.326355,263.584961 
	C680.677856,263.333618 521.028748,263.505341 361.379913,263.494659 
	C332.514008,263.492737 306.547699,272.197052 284.278259,290.499817 
	C253.968704,315.410614 239.382812,348.024414 239.351532,387.132935 
	C239.283279,472.456665 239.330795,557.780518 239.330994,643.104309 
	C239.330994,645.205627 239.330978,647.307007 239.330978,650.015320 
	C218.519043,650.015320 198.362396,650.015320 177.453201,650.015320 
	C195.678207,676.709167 213.372421,702.625610 231.042328,728.506470 
	C213.151917,754.711853 195.476273,780.602722 177.272446,807.267212 
	C198.510452,807.267212 218.618027,807.267212 238.537308,807.267212 
	C238.881927,807.909729 239.154755,808.186646 239.164215,808.472229 
	C239.246689,810.965881 239.294739,813.460999 239.329468,815.955933 
	C239.919067,858.311584 257.055328,892.190979 291.540894,916.940002 
	C312.990967,932.333923 337.408600,938.450500 363.514801,938.486877 
	C408.842987,938.549927 454.171326,938.504639 500.499634,938.504883 
z"/>
<path fill="#010100" opacity="1.000000" stroke="none" 
	d="
M499.999634,938.504883 
	C454.171326,938.504639 408.842987,938.549927 363.514801,938.486877 
	C337.408600,938.450500 312.990967,932.333923 291.540894,916.940002 
	C257.055328,892.190979 239.919067,858.311584 239.329468,815.955933 
	C239.294739,813.460999 239.246689,810.965881 239.164215,808.472229 
	C239.154755,808.186646 238.881927,807.909729 238.537308,807.267212 
	C218.618027,807.267212 198.510452,807.267212 177.272446,807.267212 
	C195.476273,780.602722 213.151917,754.711853 231.042328,728.506470 
	C213.372421,702.625610 195.678207,676.709167 177.453201,650.015320 
	C198.362396,650.015320 218.519043,650.015320 239.330978,650.015320 
	C239.330978,647.307007 239.330994,645.205627 239.330994,643.104309 
	C239.330795,557.780518 239.283279,472.456665 239.351532,387.132935 
	C239.382812,348.024414 253.968704,315.410614 284.278259,290.499817 
	C306.547699,272.197052 332.514008,263.492737 361.379913,263.494659 
	C521.028748,263.505341 680.677856,263.333618 840.326355,263.584961 
	C901.106873,263.680664 949.384583,304.251038 960.440002,363.718140 
	C961.890686,371.521240 962.230713,379.622803 962.242126,387.587341 
	C962.363831,472.744293 962.315735,557.901489 962.314209,643.058655 
	C962.314148,645.169861 962.314087,647.281067 962.314087,649.827026 
	C983.186829,649.827026 1003.421997,649.827026 1024.663818,649.827026 
	C1006.446167,676.506409 988.754517,702.415405 970.943665,728.499084 
	C988.669189,754.461609 1006.364929,780.380493 1024.539185,807.000183 
	C1003.506653,807.000183 983.294495,807.000183 962.153748,807.000183 
	C962.153748,812.366272 962.285522,817.308289 962.133789,822.241638 
	C960.223145,884.350769 910.136780,935.146729 847.943115,938.047363 
	C841.788574,938.334412 835.621765,938.484741 829.460693,938.486206 
	C719.807007,938.511963 610.153320,938.504883 499.999634,938.504883 
M419.883453,411.449677 
	C401.428741,402.727051 384.029175,413.626892 384.009460,433.984314 
	C383.975769,468.812408 384.071075,503.640778 383.960327,538.468567 
	C383.927307,548.862488 387.606140,557.116150 396.978149,561.968018 
	C406.702698,567.002319 415.797638,565.237549 424.446381,558.673645 
	C447.261566,541.358215 470.261810,524.286926 493.132812,507.044708 
	C508.398224,495.536194 508.306000,477.426880 493.009766,465.867065 
	C485.304321,460.043823 477.590179,454.231537 469.838867,448.469604 
	C453.406586,436.254608 436.947266,424.075897 419.883453,411.449677 
M792.101562,456.510864 
	C793.264343,456.431000 794.429626,456.377014 795.589600,456.267334 
	C810.247070,454.881531 820.076477,441.690063 817.146790,427.346527 
	C814.711426,415.423370 804.916565,408.171600 791.011414,408.167297 
	C720.526550,408.145508 650.041687,408.152191 579.556824,408.181702 
	C577.237854,408.182678 574.891907,408.373932 572.604370,408.753082 
	C556.874207,411.360260 547.940613,428.633240 555.144592,442.764008 
	C560.326965,452.929504 569.042175,456.610596 580.219727,456.587219 
	C650.537659,456.440125 720.856018,456.512848 792.101562,456.510864 
M659.499939,564.837341 
	C702.989685,564.837341 746.479431,564.853943 789.969116,564.802612 
	C793.115967,564.798889 796.319397,564.590515 799.398560,563.981689 
	C810.851685,561.717163 819.373596,549.280579 817.549500,537.772217 
	C815.452087,524.539612 805.952148,516.849854 791.452820,516.844788 
	C720.636108,516.820007 649.819336,516.833313 579.002625,516.841125 
	C577.337585,516.841370 575.666321,516.860657 574.008423,516.997314 
	C563.190369,517.888672 553.750427,527.424500 552.918335,538.261047 
	C551.743835,553.557068 562.402405,564.744812 578.518738,564.807251 
	C605.178711,564.910339 631.839478,564.836548 659.499939,564.837341 
M305.642181,765.210022 
	C308.771149,744.708679 311.900116,724.207336 315.029083,703.706055 
	C315.398041,703.745605 315.766968,703.785217 316.135925,703.824829 
	C316.135925,732.428589 316.135925,761.032349 316.135925,789.619141 
	C322.231323,789.619141 327.947266,789.619141 333.669983,789.619141 
	C333.669983,749.331299 333.669983,709.422546 333.669983,669.281006 
	C324.575348,669.281006 315.820404,669.281006 306.550049,669.281006 
	C302.655640,696.937073 298.769958,724.531494 294.884247,752.125854 
	C294.576874,752.129883 294.269501,752.133850 293.962097,752.137817 
	C290.048004,724.512939 286.133911,696.888000 282.220703,669.269409 
	C273.026855,669.269409 264.254456,669.269409 255.295334,669.269409 
	C255.295334,709.547119 255.295334,749.599243 255.295334,789.823792 
	C260.679443,789.823792 265.799957,789.823792 271.597046,789.823792 
	C271.597046,762.109009 271.597046,734.492493 271.597046,706.875916 
	C272.033966,706.845764 272.470886,706.815552 272.907806,706.785400 
	C277.132202,734.462524 281.356567,762.139709 285.550598,789.617981 
	C291.345642,789.617981 296.584869,789.617981 301.869110,789.617981 
	C303.110809,781.529236 304.297241,773.800476 305.642181,765.210022 
M477.527863,764.499512 
	C477.527863,772.927734 477.527863,781.355896 477.527863,789.708374 
	C483.788574,789.708374 489.391022,789.708374 494.956177,789.708374 
	C494.956177,749.392578 494.956177,709.364746 494.956177,669.264282 
	C485.780151,669.264282 477.005951,669.264282 468.126587,669.264282 
	C464.194336,696.985413 460.290009,724.509888 456.385651,752.034363 
	C456.048706,751.987732 455.711761,751.941162 455.374817,751.894592 
	C451.532166,724.427673 447.689514,696.960815 443.819977,669.301514 
	C434.652008,669.301514 425.875793,669.301514 416.829102,669.301514 
	C416.829102,709.370911 416.829102,749.452087 416.829102,789.719238 
	C422.186554,789.719238 427.406586,789.719238 433.006714,789.719238 
	C433.006714,760.899963 433.006714,732.353699 433.006714,703.807373 
	C433.315643,703.778137 433.624603,703.748901 433.933533,703.719666 
	C438.317749,732.391296 442.701965,761.062988 447.096924,789.804932 
	C452.727997,789.804932 457.841766,789.804932 463.379395,789.804932 
	C467.614014,762.029236 471.830902,734.369751 476.047821,706.710205 
	C476.541199,706.749451 477.034607,706.788696 477.527985,706.827942 
	C477.527985,725.718445 477.527985,744.608948 477.527863,764.499512 
M388.005920,649.698364 
	C388.667786,649.751343 389.329620,649.850769 389.991486,649.850830 
	C530.252747,649.858154 670.514038,649.859192 810.775330,649.844360 
	C811.840881,649.844238 812.906372,649.622864 814.528870,649.443176 
	C808.619873,639.846130 800.191833,637.092712 790.074768,637.097961 
	C663.972900,637.163391 537.870972,637.140137 411.769104,637.147827 
	C409.938782,637.147949 408.094513,637.127930 406.280579,637.330688 
	C398.221771,638.231384 391.709503,641.645447 388.005920,649.698364 
M526.129761,668.312439 
	C514.041626,673.070679 508.314819,681.879944 508.238312,696.513550 
	C508.123413,718.487549 507.855774,740.471863 508.434937,762.431213 
	C508.598969,768.650940 510.370911,775.410828 513.359924,780.848511 
	C519.031555,791.166382 533.473145,794.832703 547.673035,790.927246 
	C558.642090,787.910400 565.872437,778.336975 566.085388,764.729614 
	C566.452698,741.262695 566.494507,717.780396 566.072876,694.315308 
	C565.804199,679.359253 557.827942,669.694824 544.211426,667.531311 
	C538.616638,666.642334 532.690735,667.837097 526.129761,668.312439 
M830.990417,694.668640 
	C831.177307,698.150208 831.079285,701.675354 831.603149,705.105469 
	C833.370483,716.676392 840.872620,724.722412 848.817200,732.467957 
	C853.461670,736.995972 858.332336,741.342529 862.549133,746.245544 
	C867.581238,752.096619 869.250244,759.209351 867.848999,766.835693 
	C866.883057,772.093445 863.418579,774.850281 858.470459,774.779541 
	C853.061584,774.702209 849.747131,771.944336 848.955017,766.496643 
	C848.412170,762.763062 848.235779,758.976196 847.877441,755.012390 
	C842.166016,755.012390 836.570923,755.012390 830.727173,755.012390 
	C830.727173,759.189270 830.375977,763.173828 830.788452,767.077759 
	C832.496155,783.240601 841.519775,791.589172 856.352722,792.153931 
	C878.273071,792.988586 885.605774,780.474426 887.230042,767.443420 
	C889.141052,752.112549 884.414185,739.244385 873.426392,728.519348 
	C867.472717,722.708069 861.386536,717.010010 855.761353,710.891968 
	C851.299316,706.038940 849.482971,699.974792 850.201233,693.318970 
	C850.796570,687.801270 854.062134,684.578552 859.168030,684.326904 
	C864.148560,684.081482 867.695435,687.188171 868.469299,692.776489 
	C868.894409,695.846436 868.931641,698.970093 869.140747,702.026245 
	C875.268738,702.026245 880.979065,702.026245 886.813660,702.026245 
	C886.813660,698.635254 887.029663,695.623657 886.773743,692.652710 
	C885.950378,683.093079 882.882446,674.643555 873.744629,669.910889 
	C853.674927,659.516479 832.580139,671.327332 830.990417,694.668640 
M598.115295,708.280701 
	C596.424683,695.289917 594.734009,682.299072 593.050781,669.365234 
	C586.389832,669.365234 580.154602,669.365234 573.478333,669.365234 
	C579.619995,709.791382 585.703796,749.836243 591.753601,789.657593 
	C600.731689,789.657593 608.976562,789.657593 617.486511,789.657593 
	C623.586121,749.443970 629.641602,709.521667 635.737671,669.331360 
	C629.679260,669.331360 623.943542,669.331360 617.913025,669.331360 
	C613.953857,699.086304 610.026611,728.601807 606.099304,758.117249 
	C605.704285,758.099426 605.309326,758.081665 604.914307,758.063904 
	C602.676086,741.765137 600.437805,725.466370 598.115295,708.280701 
M678.182922,741.499939 
	C678.182922,757.586365 678.182922,773.672791 678.182922,789.660400 
	C695.890930,789.660400 712.965393,789.660400 729.971436,789.660400 
	C729.971436,783.909851 729.971436,778.500183 729.971436,772.493835 
	C718.918579,772.493835 708.195862,772.493835 697.610046,772.493835 
	C697.610046,759.832275 697.610046,747.779785 697.610046,735.287964 
	C706.254028,735.287964 714.505737,735.287964 722.802124,735.287964 
	C722.802124,729.310425 722.802124,723.794128 722.802124,717.835693 
	C714.125427,717.835693 705.875793,717.835693 697.610840,717.835693 
	C697.610840,707.177734 697.610840,696.982300 697.610840,686.148315 
	C708.708618,686.148315 719.420166,686.148315 729.948486,686.148315 
	C729.948486,680.086182 729.948486,674.677917 729.948486,669.283813 
	C712.537048,669.283813 695.492004,669.283813 678.182922,669.283813 
	C678.182922,693.249451 678.182922,716.874695 678.182922,741.499939 
M379.100342,702.544067 
	C378.131744,705.511108 377.163116,708.478088 375.752869,712.797974 
	C371.548828,698.419006 367.892914,685.635742 363.988190,672.929016 
	C363.524780,671.420898 361.772247,669.310242 360.496552,669.221863 
	C354.715637,668.821472 348.891418,669.046631 342.312927,669.046631 
	C345.415100,678.362671 347.859985,687.360352 351.364441,695.924377 
	C362.750702,723.749695 368.466217,752.417847 365.614960,782.545349 
	C365.505585,783.701111 365.552856,784.878845 365.615021,786.041626 
	C365.682434,787.302002 365.852905,788.556946 365.970703,789.737061 
	C372.269012,789.737061 378.206482,789.737061 384.701050,789.737061 
	C384.701050,777.531677 385.038269,765.566772 384.597870,753.630554 
	C384.223358,743.478516 385.790649,733.882324 389.309143,724.369202 
	C393.405670,713.293091 396.887451,701.988892 400.596222,690.770447 
	C402.929474,683.712830 405.189758,676.631104 407.650391,669.043213 
	C402.176392,669.043213 397.373138,669.193970 392.585510,668.985718 
	C389.787384,668.864014 388.570038,669.692200 387.799713,672.558899 
	C385.169128,682.348816 382.147705,692.033691 379.100342,702.544067 
M912.947144,694.611328 
	C912.947144,726.337708 912.947144,758.064087 912.947144,789.739197 
	C919.782471,789.739197 925.718384,789.739197 932.208069,789.739197 
	C932.208069,755.283630 932.208069,721.080078 932.208069,686.458374 
	C939.021545,686.458374 945.288452,686.458374 951.817139,686.458374 
	C951.817139,680.466003 951.817139,674.899719 951.817139,669.253662 
	C932.181519,669.253662 912.803162,669.253662 893.338989,669.253662 
	C893.338989,674.993408 893.338989,680.420837 893.338989,686.515747 
	C899.918518,686.515747 906.307373,686.515747 912.947144,686.515747 
	C912.947144,689.337830 912.947144,691.491577 912.947144,694.611328 
M791.691406,782.439453 
	C791.691406,779.327148 791.691406,776.214905 791.691406,772.497803 
	C780.860046,772.497803 770.621826,772.497803 759.829102,772.497803 
	C759.829102,737.680176 759.829102,703.475708 759.829102,669.326050 
	C753.316772,669.326050 747.395752,669.326050 741.416870,669.326050 
	C741.416870,709.644165 741.416870,749.682068 741.416870,789.653442 
	C758.271057,789.653442 774.823608,789.653442 791.691467,789.653442 
	C791.691467,787.339478 791.691467,785.365234 791.691406,782.439453 
M663.094360,669.258728 
	C657.165527,669.258728 651.236633,669.258728 645.250732,669.258728 
	C645.250732,709.619507 645.250732,749.648193 645.250732,789.614014 
	C651.588013,789.614014 657.638000,789.614014 664.020630,789.614014 
	C664.020630,787.423828 664.020691,785.613464 664.020691,783.803162 
	C664.020691,751.167175 664.032837,718.531128 664.008484,685.895142 
	C664.004517,680.576050 663.839172,675.257141 663.094360,669.258728 
M800.782349,764.499878 
	C800.782349,772.909973 800.782349,781.320068 800.782349,789.755371 
	C807.367859,789.755371 813.289246,789.755371 819.478699,789.755371 
	C819.478699,749.505005 819.478699,709.498352 819.478699,669.355103 
	C813.099426,669.355103 807.051270,669.355103 800.782349,669.355103 
	C800.782349,700.943726 800.782349,732.221802 800.782349,764.499878 
z"/>
<path fill="#F2D403" opacity="1.000000" stroke="none" 
	d="
M420.191254,411.665985 
	C436.947266,424.075897 453.406586,436.254608 469.838867,448.469604 
	C477.590179,454.231537 485.304321,460.043823 493.009766,465.867065 
	C508.306000,477.426880 508.398224,495.536194 493.132812,507.044708 
	C470.261810,524.286926 447.261566,541.358215 424.446381,558.673645 
	C415.797638,565.237549 406.702698,567.002319 396.978149,561.968018 
	C387.606140,557.116150 383.927307,548.862488 383.960327,538.468567 
	C384.071075,503.640778 383.975769,468.812408 384.009460,433.984314 
	C384.029175,413.626892 401.428741,402.727051 420.191254,411.665985 
z"/>
<path fill="#F0D203" opacity="1.000000" stroke="none" 
	d="
M791.637939,456.511902 
	C720.856018,456.512848 650.537659,456.440125 580.219727,456.587219 
	C569.042175,456.610596 560.326965,452.929504 555.144592,442.764008 
	C547.940613,428.633240 556.874207,411.360260 572.604370,408.753082 
	C574.891907,408.373932 577.237854,408.182678 579.556824,408.181702 
	C650.041687,408.152191 720.526550,408.145508 791.011414,408.167297 
	C804.916565,408.171600 814.711426,415.423370 817.146790,427.346527 
	C820.076477,441.690063 810.247070,454.881531 795.589600,456.267334 
	C794.429626,456.377014 793.264343,456.431000 791.637939,456.511902 
z"/>
<path fill="#F2D403" opacity="1.000000" stroke="none" 
	d="
M658.999878,564.837341 
	C631.839478,564.836548 605.178711,564.910339 578.518738,564.807251 
	C562.402405,564.744812 551.743835,553.557068 552.918335,538.261047 
	C553.750427,527.424500 563.190369,517.888672 574.008423,516.997314 
	C575.666321,516.860657 577.337585,516.841370 579.002625,516.841125 
	C649.819336,516.833313 720.636108,516.820007 791.452820,516.844788 
	C805.952148,516.849854 815.452087,524.539612 817.549500,537.772217 
	C819.373596,549.280579 810.851685,561.717163 799.398560,563.981689 
	C796.319397,564.590515 793.115967,564.798889 789.969116,564.802612 
	C746.479431,564.853943 702.989685,564.837341 658.999878,564.837341 
z"/>
<path fill="#F0D203" opacity="1.000000" stroke="none" 
	d="
M305.562927,765.640869 
	C304.297241,773.800476 303.110809,781.529236 301.869110,789.617981 
	C296.584869,789.617981 291.345642,789.617981 285.550598,789.617981 
	C281.356567,762.139709 277.132202,734.462524 272.907806,706.785400 
	C272.470886,706.815552 272.033966,706.845764 271.597046,706.875916 
	C271.597046,734.492493 271.597046,762.109009 271.597046,789.823792 
	C265.799957,789.823792 260.679443,789.823792 255.295334,789.823792 
	C255.295334,749.599243 255.295334,709.547119 255.295334,669.269409 
	C264.254456,669.269409 273.026855,669.269409 282.220703,669.269409 
	C286.133911,696.888000 290.048004,724.512939 293.962097,752.137817 
	C294.269501,752.133850 294.576874,752.129883 294.884247,752.125854 
	C298.769958,724.531494 302.655640,696.937073 306.550049,669.281006 
	C315.820404,669.281006 324.575348,669.281006 333.669983,669.281006 
	C333.669983,709.422546 333.669983,749.331299 333.669983,789.619141 
	C327.947266,789.619141 322.231323,789.619141 316.135925,789.619141 
	C316.135925,761.032349 316.135925,732.428589 316.135925,703.824829 
	C315.766968,703.785217 315.398041,703.745605 315.029083,703.706055 
	C311.900116,724.207336 308.771149,744.708679 305.562927,765.640869 
z"/>
<path fill="#F0D303" opacity="1.000000" stroke="none" 
	d="
M477.527924,763.999512 
	C477.527985,744.608948 477.527985,725.718445 477.527985,706.827942 
	C477.034607,706.788696 476.541199,706.749451 476.047821,706.710205 
	C471.830902,734.369751 467.614014,762.029236 463.379395,789.804932 
	C457.841766,789.804932 452.727997,789.804932 447.096924,789.804932 
	C442.701965,761.062988 438.317749,732.391296 433.933533,703.719666 
	C433.624603,703.748901 433.315643,703.778137 433.006714,703.807373 
	C433.006714,732.353699 433.006714,760.899963 433.006714,789.719238 
	C427.406586,789.719238 422.186554,789.719238 416.829102,789.719238 
	C416.829102,749.452087 416.829102,709.370911 416.829102,669.301514 
	C425.875793,669.301514 434.652008,669.301514 443.819977,669.301514 
	C447.689514,696.960815 451.532166,724.427673 455.374817,751.894592 
	C455.711761,751.941162 456.048706,751.987732 456.385651,752.034363 
	C460.290009,724.509888 464.194336,696.985413 468.126587,669.264282 
	C477.005951,669.264282 485.780151,669.264282 494.956177,669.264282 
	C494.956177,709.364746 494.956177,749.392578 494.956177,789.708374 
	C489.391022,789.708374 483.788574,789.708374 477.527863,789.708374 
	C477.527863,781.355896 477.527863,772.927734 477.527924,763.999512 
z"/>
<path fill="#EACD03" opacity="1.000000" stroke="none" 
	d="
M387.862183,649.363647 
	C391.709503,641.645447 398.221771,638.231384 406.280579,637.330688 
	C408.094513,637.127930 409.938782,637.147949 411.769104,637.147827 
	C537.870972,637.140137 663.972900,637.163391 790.074768,637.097961 
	C800.191833,637.092712 808.619873,639.846130 814.528870,649.443176 
	C812.906372,649.622864 811.840881,649.844238 810.775330,649.844360 
	C670.514038,649.859192 530.252747,649.858154 389.991486,649.850830 
	C389.329620,649.850769 388.667786,649.751343 387.862183,649.363647 
z"/>
<path fill="#EFD203" opacity="1.000000" stroke="none" 
	d="
M526.522583,668.198242 
	C532.690735,667.837097 538.616638,666.642334 544.211426,667.531311 
	C557.827942,669.694824 565.804199,679.359253 566.072876,694.315308 
	C566.494507,717.780396 566.452698,741.262695 566.085388,764.729614 
	C565.872437,778.336975 558.642090,787.910400 547.673035,790.927246 
	C533.473145,794.832703 519.031555,791.166382 513.359924,780.848511 
	C510.370911,775.410828 508.598969,768.650940 508.434937,762.431213 
	C507.855774,740.471863 508.123413,718.487549 508.238312,696.513550 
	C508.314819,681.879944 514.041626,673.070679 526.522583,668.198242 
M544.333923,687.283997 
	C536.629517,681.418884 528.195190,684.395203 527.880127,693.860046 
	C527.171387,715.148438 527.348083,736.466919 527.236450,757.773560 
	C527.221680,760.586731 527.486267,763.421570 527.869690,766.212341 
	C528.622498,771.692200 531.979980,774.709839 537.134216,774.782166 
	C542.204285,774.853271 545.736389,771.809631 546.640808,766.389038 
	C546.995361,764.263855 547.156616,762.082642 547.160645,759.926514 
	C547.198303,739.604919 547.298828,719.282043 547.077087,698.962830 
	C547.036682,695.260254 545.618225,691.572693 544.333923,687.283997 
z"/>
<path fill="#EFD203" opacity="1.000000" stroke="none" 
	d="
M830.993164,694.204590 
	C832.580139,671.327332 853.674927,659.516479 873.744629,669.910889 
	C882.882446,674.643555 885.950378,683.093079 886.773743,692.652710 
	C887.029663,695.623657 886.813660,698.635254 886.813660,702.026245 
	C880.979065,702.026245 875.268738,702.026245 869.140747,702.026245 
	C868.931641,698.970093 868.894409,695.846436 868.469299,692.776489 
	C867.695435,687.188171 864.148560,684.081482 859.168030,684.326904 
	C854.062134,684.578552 850.796570,687.801270 850.201233,693.318970 
	C849.482971,699.974792 851.299316,706.038940 855.761353,710.891968 
	C861.386536,717.010010 867.472717,722.708069 873.426392,728.519348 
	C884.414185,739.244385 889.141052,752.112549 887.230042,767.443420 
	C885.605774,780.474426 878.273071,792.988586 856.352722,792.153931 
	C841.519775,791.589172 832.496155,783.240601 830.788452,767.077759 
	C830.375977,763.173828 830.727173,759.189270 830.727173,755.012390 
	C836.570923,755.012390 842.166016,755.012390 847.877441,755.012390 
	C848.235779,758.976196 848.412170,762.763062 848.955017,766.496643 
	C849.747131,771.944336 853.061584,774.702209 858.470459,774.779541 
	C863.418579,774.850281 866.883057,772.093445 867.848999,766.835693 
	C869.250244,759.209351 867.581238,752.096619 862.549133,746.245544 
	C858.332336,741.342529 853.461670,736.995972 848.817200,732.467957 
	C840.872620,724.722412 833.370483,716.676392 831.603149,705.105469 
	C831.079285,701.675354 831.177307,698.150208 830.993164,694.204590 
z"/>
<path fill="#EFD103" opacity="1.000000" stroke="none" 
	d="
M598.157471,708.724121 
	C600.437805,725.466370 602.676086,741.765137 604.914307,758.063904 
	C605.309326,758.081665 605.704285,758.099426 606.099304,758.117249 
	C610.026611,728.601807 613.953857,699.086304 617.913025,669.331360 
	C623.943542,669.331360 629.679260,669.331360 635.737671,669.331360 
	C629.641602,709.521667 623.586121,749.443970 617.486511,789.657593 
	C608.976562,789.657593 600.731689,789.657593 591.753601,789.657593 
	C585.703796,749.836243 579.619995,709.791382 573.478333,669.365234 
	C580.154602,669.365234 586.389832,669.365234 593.050781,669.365234 
	C594.734009,682.299072 596.424683,695.289917 598.157471,708.724121 
z"/>
<path fill="#F0D303" opacity="1.000000" stroke="none" 
	d="
M678.182922,740.999878 
	C678.182922,716.874695 678.182922,693.249451 678.182922,669.283813 
	C695.492004,669.283813 712.537048,669.283813 729.948486,669.283813 
	C729.948486,674.677917 729.948486,680.086182 729.948486,686.148315 
	C719.420166,686.148315 708.708618,686.148315 697.610840,686.148315 
	C697.610840,696.982300 697.610840,707.177734 697.610840,717.835693 
	C705.875793,717.835693 714.125427,717.835693 722.802124,717.835693 
	C722.802124,723.794128 722.802124,729.310425 722.802124,735.287964 
	C714.505737,735.287964 706.254028,735.287964 697.610046,735.287964 
	C697.610046,747.779785 697.610046,759.832275 697.610046,772.493835 
	C708.195862,772.493835 718.918579,772.493835 729.971436,772.493835 
	C729.971436,778.500183 729.971436,783.909851 729.971436,789.660400 
	C712.965393,789.660400 695.890930,789.660400 678.182922,789.660400 
	C678.182922,773.672791 678.182922,757.586365 678.182922,740.999878 
z"/>
<path fill="#EFD103" opacity="1.000000" stroke="none" 
	d="
M379.187866,702.151367 
	C382.147705,692.033691 385.169128,682.348816 387.799713,672.558899 
	C388.570038,669.692200 389.787384,668.864014 392.585510,668.985718 
	C397.373138,669.193970 402.176392,669.043213 407.650391,669.043213 
	C405.189758,676.631104 402.929474,683.712830 400.596222,690.770447 
	C396.887451,701.988892 393.405670,713.293091 389.309143,724.369202 
	C385.790649,733.882324 384.223358,743.478516 384.597870,753.630554 
	C385.038269,765.566772 384.701050,777.531677 384.701050,789.737061 
	C378.206482,789.737061 372.269012,789.737061 365.970703,789.737061 
	C365.852905,788.556946 365.682434,787.302002 365.615021,786.041626 
	C365.552856,784.878845 365.505585,783.701111 365.614960,782.545349 
	C368.466217,752.417847 362.750702,723.749695 351.364441,695.924377 
	C347.859985,687.360352 345.415100,678.362671 342.312927,669.046631 
	C348.891418,669.046631 354.715637,668.821472 360.496552,669.221863 
	C361.772247,669.310242 363.524780,671.420898 363.988190,672.929016 
	C367.892914,685.635742 371.548828,698.419006 375.752869,712.797974 
	C377.163116,708.478088 378.131744,705.511108 379.187866,702.151367 
z"/>
<path fill="#F1D303" opacity="1.000000" stroke="none" 
	d="
M912.947144,694.128357 
	C912.947144,691.491577 912.947144,689.337830 912.947144,686.515747 
	C906.307373,686.515747 899.918518,686.515747 893.338989,686.515747 
	C893.338989,680.420837 893.338989,674.993408 893.338989,669.253662 
	C912.803162,669.253662 932.181519,669.253662 951.817139,669.253662 
	C951.817139,674.899719 951.817139,680.466003 951.817139,686.458374 
	C945.288452,686.458374 939.021545,686.458374 932.208069,686.458374 
	C932.208069,721.080078 932.208069,755.283630 932.208069,789.739197 
	C925.718384,789.739197 919.782471,789.739197 912.947144,789.739197 
	C912.947144,758.064087 912.947144,726.337708 912.947144,694.128357 
z"/>
<path fill="#F0D203" opacity="1.000000" stroke="none" 
	d="
M791.691406,782.915222 
	C791.691467,785.365234 791.691467,787.339478 791.691467,789.653442 
	C774.823608,789.653442 758.271057,789.653442 741.416870,789.653442 
	C741.416870,749.682068 741.416870,709.644165 741.416870,669.326050 
	C747.395752,669.326050 753.316772,669.326050 759.829102,669.326050 
	C759.829102,703.475708 759.829102,737.680176 759.829102,772.497803 
	C770.621826,772.497803 780.860046,772.497803 791.691406,772.497803 
	C791.691406,776.214905 791.691406,779.327148 791.691406,782.915222 
z"/>
<path fill="#F0D203" opacity="1.000000" stroke="none" 
	d="
M663.421387,669.598389 
	C663.839172,675.257141 664.004517,680.576050 664.008484,685.895142 
	C664.032837,718.531128 664.020691,751.167175 664.020691,783.803162 
	C664.020691,785.613464 664.020630,787.423828 664.020630,789.614014 
	C657.638000,789.614014 651.588013,789.614014 645.250732,789.614014 
	C645.250732,749.648193 645.250732,709.619507 645.250732,669.258728 
	C651.236633,669.258728 657.165527,669.258728 663.421387,669.598389 
z"/>
<path fill="#EFD103" opacity="1.000000" stroke="none" 
	d="
M800.782349,763.999878 
	C800.782349,732.221802 800.782349,700.943726 800.782349,669.355103 
	C807.051270,669.355103 813.099426,669.355103 819.478699,669.355103 
	C819.478699,709.498352 819.478699,749.505005 819.478699,789.755371 
	C813.289246,789.755371 807.367859,789.755371 800.782349,789.755371 
	C800.782349,781.320068 800.782349,772.909973 800.782349,763.999878 
z"/>
<path fill="#040400" opacity="1.000000" stroke="none" 
	d="
M544.584961,687.581116 
	C545.618225,691.572693 547.036682,695.260254 547.077087,698.962830 
	C547.298828,719.282043 547.198303,739.604919 547.160645,759.926514 
	C547.156616,762.082642 546.995361,764.263855 546.640808,766.389038 
	C545.736389,771.809631 542.204285,774.853271 537.134216,774.782166 
	C531.979980,774.709839 528.622498,771.692200 527.869690,766.212341 
	C527.486267,763.421570 527.221680,760.586731 527.236450,757.773560 
	C527.348083,736.466919 527.171387,715.148438 527.880127,693.860046 
	C528.195190,684.395203 536.629517,681.418884 544.584961,687.581116 
z"/>
</svg>