<svg version="1.1" id="Layer_1" xmlns="http://www.w3.org/2000/svg" xmlns:xlink="http://www.w3.org/1999/xlink" x="0px" y="0px"
	 width="100%" viewBox="0 0 642 638" enable-background="new 0 0 642 638" xml:space="preserve">
<path fill="#474747" opacity="1.000000" stroke="none" 
	d="
M104.256668,638.744202 
	C70.840134,639.000000 37.680099,638.954163 4.520708,639.079468 
	C1.596851,639.090515 0.913303,638.562439 0.914662,635.521790 
	C1.008660,425.231659 1.010560,214.941452 0.905682,4.651308 
	C0.904004,1.285908 1.959969,0.940124 4.847219,0.941007 
	C216.303818,1.005651 427.760437,1.007197 639.217041,0.928598 
	C642.257507,0.927468 643.085083,1.509201 643.083679,4.715563 
	C642.991028,214.839081 642.987549,424.962616 643.104248,635.086121 
	C643.106201,638.683350 642.156189,639.098572 638.915039,639.085571 
	C604.589539,638.947571 570.263367,639.000000 535.468628,639.000000 
	C532.657288,637.507202 531.549988,635.292603 530.829041,632.650208 
	C526.615051,617.205627 521.748108,601.997986 515.235535,587.320007 
	C504.954865,564.149658 491.629608,542.928772 475.254364,523.621033 
	C455.059631,499.809753 431.166962,480.642151 403.022583,466.985413 
	C379.689819,455.663422 355.159393,448.919891 329.139160,447.413971 
	C274.694397,444.262939 227.622925,462.071655 186.833878,497.347504 
	C149.979126,529.220886 126.351883,569.581360 112.495415,615.983032 
	C110.777107,621.737244 109.316551,627.549377 107.917625,633.378967 
	C107.391228,635.572571 106.404755,637.288208 104.256668,638.744202 
z"/>
<path fill="#000000" opacity="1.000000" stroke="none" 
	d="
M104.468658,639.000000 
	C116.723488,579.045349 144.652802,528.093384 192.622269,488.929169 
	C260.214935,433.743744 356.004578,429.353607 428.294128,478.348694 
	C481.383484,514.330566 514.239136,564.592651 531.650208,625.643127 
	C532.836670,629.803284 533.782166,634.032166 534.919861,638.614563 
	C391.645782,639.000000 248.291550,639.000000 104.468658,639.000000 
z"/>
<path fill="#000000" opacity="1.000000" stroke="none" 
	d="
M405.184753,175.813538 
	C480.446167,225.951874 488.967682,331.681519 421.953644,391.823761 
	C382.188293,427.511444 335.237244,436.881683 284.961761,419.207855 
	C235.694138,401.888367 205.297089,365.991486 195.860123,314.429596 
	C182.243576,240.031113 231.235580,169.616241 305.328400,155.983704 
	C340.901245,149.438553 374.257538,156.088913 405.184753,175.813538 
z"/>
</svg>